<svg id="Layer_1" data-name="Layer 1" xmlns="http://www.w3.org/2000/svg" xmlns:xlink="http://www.w3.org/1999/xlink" viewBox="0 0 462.01 154.73"><defs><style>.cls-1{fill:url(#linear-gradient);}.cls-2{fill:#fff;}.cls-3{mask:url(#mask);}.cls-4{fill:#52c5d2;}</style><linearGradient id="linear-gradient" x1="88.82" y1="100.64" x2="88.82" y2="13.32" gradientUnits="userSpaceOnUse"><stop offset="0" stop-color="#fff"/><stop offset="0.12" stop-color="#e9e9e9"/><stop offset="0.36" stop-color="#afafaf"/><stop offset="0.71" stop-color="#545454"/><stop offset="1" stop-color="#010101"/></linearGradient><mask id="mask" x="-11.63" y="-8.76" width="200.91" height="166.2" maskUnits="userSpaceOnUse"><rect class="cls-1" x="-11.63" y="-8.76" width="200.91" height="166.2"/></mask></defs><title>logo-horizontal</title><path class="cls-2" d="M214.08,86.47V23.13H226.4V75.67h32.31v10.8Z"/><path class="cls-2" d="M326.17,70.14a14.84,14.84,0,0,1-1.6,7,14.67,14.67,0,0,1-4.42,5.08,20.81,20.81,0,0,1-6.51,3.13,28.51,28.51,0,0,1-7.9,1.07H275.13V23.13H309a12.54,12.54,0,0,1,6,1.42,15.08,15.08,0,0,1,4.55,3.71,16.8,16.8,0,0,1,2.9,5.17,17.49,17.49,0,0,1,1,5.84,17.28,17.28,0,0,1-2.32,8.7,14.07,14.07,0,0,1-6.79,6A16.32,16.32,0,0,1,323,59.75,16.62,16.62,0,0,1,326.17,70.14ZM287.44,33.65v16h16.42a7.29,7.29,0,0,0,5.31-2.14,7.86,7.86,0,0,0,2.19-5.89,8.14,8.14,0,0,0-2-5.8,6.55,6.55,0,0,0-5-2.14Zm26.33,34.17a9.16,9.16,0,0,0-.58-3.25,9.35,9.35,0,0,0-1.56-2.73A7.29,7.29,0,0,0,309.31,60a6.49,6.49,0,0,0-2.95-.67H287.44V76h18.3a8,8,0,0,0,3.17-.63,7.38,7.38,0,0,0,2.54-1.74A8.14,8.14,0,0,0,313.14,71,8.28,8.28,0,0,0,313.77,67.82Z"/><path class="cls-2" d="M344.74,86.47V23.13h28A18.14,18.14,0,0,1,380.84,25a21,21,0,0,1,6.38,4.82,23,23,0,0,1,4.19,6.78,20.43,20.43,0,0,1,1.52,7.63,21.1,21.1,0,0,1-3.08,11.2,17.67,17.67,0,0,1-8.34,7.27L396,86.47H382.13L369.19,65.23H357.05V86.47Zm12.31-32h15.44a6.57,6.57,0,0,0,3.17-.8,8.16,8.16,0,0,0,2.54-2.19,10.83,10.83,0,0,0,1.7-3.26,12.43,12.43,0,0,0,.62-4,11.32,11.32,0,0,0-.71-4.1,10.64,10.64,0,0,0-1.92-3.26,8.58,8.58,0,0,0-2.76-2.14,7.17,7.17,0,0,0-3.17-.76H357.05Z"/><path class="cls-2" d="M417.21,23.13l15.61,30.51,15.89-30.51H462L439,64.34V86.47H426.75V64.16l-22.93-41Z"/><polygon class="cls-2" points="351.99 123.93 355.89 133.84 356.11 133.84 352 123.77 347.84 133.84 348.05 133.84 348.25 133.33 351.99 123.93"/><polygon class="cls-2" points="214.58 141.78 216.59 141.78 216.59 132.34 226.17 132.34 226.17 130.68 216.59 130.68 216.59 123.19 227.95 123.19 227.95 121.41 214.58 121.41 214.58 141.78"/><path class="cls-2" d="M251.89,124.54a9.86,9.86,0,0,0-3-2.37,8.44,8.44,0,0,0-3.89-.9,8.52,8.52,0,0,0-3.79.85,9.72,9.72,0,0,0-3,2.28,10.65,10.65,0,0,0-2,3.3,10.51,10.51,0,0,0-.73,3.9,10.87,10.87,0,0,0,.69,3.81,10.61,10.61,0,0,0,2,3.32,9.72,9.72,0,0,0,3,2.32,9,9,0,0,0,7.68,0,9.69,9.69,0,0,0,3-2.27,10.91,10.91,0,0,0,2.74-7.18,10.79,10.79,0,0,0-.69-3.78A11.09,11.09,0,0,0,251.89,124.54ZM252,134.7a9.14,9.14,0,0,1-1.51,2.72,7.4,7.4,0,0,1-2.38,2,6.55,6.55,0,0,1-3.13.75,6.76,6.76,0,0,1-3.07-.7,7.55,7.55,0,0,1-2.38-1.9A8.6,8.6,0,0,1,238,134.8a9.6,9.6,0,0,1-.54-3.2,9.19,9.19,0,0,1,.53-3.1,9.07,9.07,0,0,1,1.5-2.73,7.45,7.45,0,0,1,2.38-1.93,6.66,6.66,0,0,1,3.13-.73,6.57,6.57,0,0,1,3,.7,7.63,7.63,0,0,1,2.38,1.88A8.68,8.68,0,0,1,252,128.4a9.33,9.33,0,0,1,.56,3.2A9.48,9.48,0,0,1,252,134.7Z"/><path class="cls-2" d="M278.9,131.68a15.74,15.74,0,0,1-.3,3.07,7.77,7.77,0,0,1-1.06,2.72,5.88,5.88,0,0,1-2,1.92,6.34,6.34,0,0,1-3.2.73,6.27,6.27,0,0,1-3.15-.72,5.85,5.85,0,0,1-2-1.89,8,8,0,0,1-1.07-2.7,15.31,15.31,0,0,1-.32-3.13V121.41h-2v10.27a16.94,16.94,0,0,0,.43,3.79,9.32,9.32,0,0,0,1.44,3.27,7.34,7.34,0,0,0,2.65,2.31,8.52,8.52,0,0,0,4.06.88,8.65,8.65,0,0,0,4-.84,7.31,7.31,0,0,0,2.65-2.23,9.43,9.43,0,0,0,1.48-3.26,16,16,0,0,0,.46-3.92V121.41h-2Z"/><polygon class="cls-2" points="306.47 138.37 292.99 121.41 291.44 121.41 291.44 141.78 293.45 141.78 293.45 125.14 306.73 141.78 308.48 141.78 308.48 121.44 306.47 121.44 306.47 138.37"/><path class="cls-2" d="M335.38,127.62a9.15,9.15,0,0,0-1.84-3.22,8.58,8.58,0,0,0-3-2.18,10.38,10.38,0,0,0-4.26-.81h-6.91v20.37h6.91a10.52,10.52,0,0,0,4-.73,8.74,8.74,0,0,0,3.07-2.06,9.13,9.13,0,0,0,2-3.22,12.33,12.33,0,0,0,.68-4.2A12.47,12.47,0,0,0,335.38,127.62Zm-1.9,7.29a7.62,7.62,0,0,1-1.47,2.67,6.73,6.73,0,0,1-2.43,1.78,8.12,8.12,0,0,1-3.34.64h-4.91V123.19h4.91a8.34,8.34,0,0,1,3.3.62,6.74,6.74,0,0,1,2.42,1.73,7.65,7.65,0,0,1,1.51,2.66,11.19,11.19,0,0,1,0,6.71Z"/><polygon class="cls-2" points="351.17 121.41 342.65 141.78 344.8 141.78 346.59 137.43 348.05 133.84 352 123.77 359.2 141.78 361.33 141.78 352.86 121.41 351.17 121.41"/><polygon class="cls-2" points="365.92 123.19 373.18 123.19 373.18 141.78 375.19 141.78 375.19 123.19 382.44 123.19 382.44 121.41 365.92 121.41 365.92 123.19"/><rect class="cls-2" x="391.22" y="121.41" width="2.01" height="20.37"/><path class="cls-2" d="M419.21,124.54a9.86,9.86,0,0,0-3-2.37,8.87,8.87,0,0,0-7.68,0,9.72,9.72,0,0,0-3,2.28,10.65,10.65,0,0,0-2,3.3,10.51,10.51,0,0,0-.73,3.9,10.87,10.87,0,0,0,.69,3.81,10.24,10.24,0,0,0,1.95,3.32,9.72,9.72,0,0,0,3,2.32,8.55,8.55,0,0,0,3.89.88,8.66,8.66,0,0,0,3.79-.85,9.65,9.65,0,0,0,3-2.27,10.72,10.72,0,0,0,2-3.28,10.55,10.55,0,0,0,.73-3.9,11,11,0,0,0-2.62-7.09Zm.08,10.16a8.9,8.9,0,0,1-1.5,2.72,7.5,7.5,0,0,1-2.38,2,6.55,6.55,0,0,1-3.13.75,6.76,6.76,0,0,1-3.07-.7,7.55,7.55,0,0,1-2.38-1.9,8.6,8.6,0,0,1-1.55-2.72,9.61,9.61,0,0,1-.55-3.2,9.2,9.2,0,0,1,.54-3.1,9.07,9.07,0,0,1,1.5-2.73,7.45,7.45,0,0,1,2.38-1.93,6.66,6.66,0,0,1,3.13-.73,6.57,6.57,0,0,1,3,.7,7.63,7.63,0,0,1,2.38,1.88,8.88,8.88,0,0,1,1.57,2.71,9.3,9.3,0,0,1,0,6.3Z"/><polygon class="cls-2" points="446.39 121.44 446.39 138.37 432.91 121.41 431.36 121.41 431.36 141.78 433.37 141.78 433.37 125.14 446.65 141.78 448.4 141.78 448.4 121.44 446.39 121.44"/><g class="cls-3"><path class="cls-4" d="M176,97.52,88.39,143.75,4.09,98.22,0,107.05l88.42,47.68,90.43-48.21Zm-7.46-12.31-50.7-26.95V29.87H107V87.7l10.86-5.92V70.56l27.56,14.65L88.5,115.45,31.6,85.21,57.55,71.42V82.27L68.41,87.8V32.67H57.55V59.12L8.46,85.21l80,42.54ZM68.41,13.36H57.55V26.15H68.41ZM93.53,0H82.67V42.06H93.53Zm0,95.12V52.23H82.67v43l5.43,2.82ZM117.85,9.81H107V22.6h10.86Z"/></g></svg>