<svg xmlns="http://www.w3.org/2000/svg" xmlns:xlink="http://www.w3.org/1999/xlink" viewBox="0 0 595.28 514.73"><defs><style>.cls-1{fill:url(#linear-gradient);}.cls-2{mask:url(#mask);}.cls-3{fill:#52c5d2;}</style><linearGradient id="linear-gradient" x1="295.62" y1="334.7" x2="295.62" y2="44.07" gradientUnits="userSpaceOnUse"><stop offset="0" stop-color="#fff"/><stop offset="0.12" stop-color="#e9e9e9"/><stop offset="0.36" stop-color="#afafaf"/><stop offset="0.71" stop-color="#545454"/><stop offset="1" stop-color="#010101"/></linearGradient><mask id="mask" x="-38.72" y="-29.4" width="668.69" height="553.16" maskUnits="userSpaceOnUse"><rect class="cls-1" x="-38.72" y="-29.4" width="668.69" height="553.16"/></mask></defs><title>lbry</title><g id="Layer_2" data-name="Layer 2"><g class="cls-2"><path class="cls-3" d="M585.81,324.31,294.2,478.2,13.61,326.67,0,356,294.3,514.73l301-160.45Zm-24.81-41L392.24,193.66V99.15H356.09v192.5L392.24,272V234.6L484,283.34,294.57,384,105.18,283.34l86.36-45.89v36.11L227.69,292V108.49H191.54v88L28.14,283.34,294.57,424.93ZM227.69,44.2H191.54V86.79h36.15Zm83.6,272.13V173.57H275.15V316.71l18.09,9.39Zm0-316.59H275.15v140h36.14Zm80.95,32.64H356.09V75h36.15Z"/></g></g></svg>