<svg xmlns="http://www.w3.org/2000/svg" xmlns:xlink="http://www.w3.org/1999/xlink" viewBox="0 0 595.28 850.39"><defs><style>.cls-1{fill:url(#linear-gradient);}.cls-2{mask:url(#mask);}.cls-3{fill:#52c5d2;}.cls-4{fill:#fff;}</style><linearGradient id="linear-gradient" x1="295.62" y1="334.7" x2="295.62" y2="44.07" gradientUnits="userSpaceOnUse"><stop offset="0" stop-color="#fff"/><stop offset="0.12" stop-color="#e9e9e9"/><stop offset="0.36" stop-color="#afafaf"/><stop offset="0.71" stop-color="#545454"/><stop offset="1" stop-color="#010101"/></linearGradient><mask id="mask" x="-38.72" y="-29.4" width="668.69" height="553.16" maskUnits="userSpaceOnUse"><rect class="cls-1" x="-38.72" y="-29.4" width="668.69" height="553.16"/></mask></defs><title>lbry-vertical</title><g id="Layer_2" data-name="Layer 2"><g class="cls-2"><path class="cls-3" d="M585.81,324.31,294.2,478.2,13.61,326.67,0,356,294.3,514.73l301-160.45Zm-24.81-41L392.24,193.66V99.15H356.09v192.5L392.24,272V234.6L484,283.34,294.57,384,105.18,283.34l86.36-45.89v36.11L227.69,292V108.49H191.54v88L28.14,283.34,294.57,424.93ZM227.69,44.2H191.54V86.79h36.15Zm83.6,272.13V173.57H275.15V316.71l18.09,9.39Zm0-316.59H275.15v140h36.14Zm80.95,32.64H356.09V75h36.15Z"/></g><path class="cls-4" d="M0,717.19V565.1H29.57V691.27h77.57v25.92Z"/><path class="cls-4" d="M269.14,678a34.48,34.48,0,0,1-14.47,29.13,49.65,49.65,0,0,1-15.64,7.5,68.13,68.13,0,0,1-19,2.57h-73.5V565.1H228a30.06,30.06,0,0,1,14.35,3.43,35.75,35.75,0,0,1,10.93,8.89,40.87,40.87,0,0,1,7,12.42,41.67,41.67,0,0,1-3.11,34.92,34,34,0,0,1-16.29,14.46A39.12,39.12,0,0,1,261.53,653Q269.14,663,269.14,678Zm-93-87.61v38.34h39.43a17.54,17.54,0,0,0,12.75-5.14q5.25-5.15,5.25-14.14,0-8.78-4.82-13.92a15.66,15.66,0,0,0-11.9-5.14Zm63.21,82A22.26,22.26,0,0,0,238,664.6a21.66,21.66,0,0,0-3.75-6.53,17.41,17.41,0,0,0-5.57-4.39,15.47,15.47,0,0,0-7.07-1.61H176.14v40h43.93a19.06,19.06,0,0,0,7.6-1.5,18,18,0,0,0,6.11-4.17,20.35,20.35,0,0,0,5.57-14Z"/><path class="cls-4" d="M313.71,717.19V565.1H381a43.29,43.29,0,0,1,19.39,4.39,50.35,50.35,0,0,1,15.33,11.57,54.79,54.79,0,0,1,10.07,16.28,49.14,49.14,0,0,1,3.64,18.31A50.56,50.56,0,0,1,422,642.54,42.36,42.36,0,0,1,402,660l34.72,57.2H403.49l-31.07-51H343.28v51Zm29.57-76.9h37.07a15.73,15.73,0,0,0,7.61-1.93,19.44,19.44,0,0,0,6.1-5.25,26,26,0,0,0,4.07-7.82,30.28,30.28,0,0,0,1.5-9.64,27.54,27.54,0,0,0-1.71-9.85,25.7,25.7,0,0,0-4.61-7.82,21,21,0,0,0-6.64-5.14,17.32,17.32,0,0,0-7.61-1.82H343.28Z"/><path class="cls-4" d="M487.71,565.1l37.5,73.26,38.14-73.26h31.93l-55.29,99v53.13H510.63V663.64L455.56,565.1Z"/><polygon class="cls-4" points="331.13 807.13 340.49 830.92 341 830.92 331.15 806.74 321.16 830.92 321.65 830.92 322.15 829.7 331.13 807.13"/><polygon class="cls-4" points="1.19 850 6.02 850 6.02 827.34 29.02 827.34 29.02 823.34 6.02 823.34 6.02 805.36 33.29 805.36 33.29 801.09 1.19 801.09 1.19 850"/><path class="cls-4" d="M90.78,808.6a23.43,23.43,0,0,0-7.23-5.68,20.17,20.17,0,0,0-9.34-2.17,20.66,20.66,0,0,0-9.09,2,23.45,23.45,0,0,0-7.3,5.48,26,26,0,0,0-6.62,17.29,26.34,26.34,0,0,0,1.66,9.16,25.25,25.25,0,0,0,4.68,7.95,23.23,23.23,0,0,0,7.27,5.58,21.5,21.5,0,0,0,18.43.07,23.24,23.24,0,0,0,7.26-5.44A25.72,25.72,0,0,0,95.33,835a25.38,25.38,0,0,0,1.75-9.36,25.82,25.82,0,0,0-1.65-9.06A26.2,26.2,0,0,0,90.78,808.6ZM91,833a21.73,21.73,0,0,1-3.62,6.54,18.22,18.22,0,0,1-5.72,4.68,15.7,15.7,0,0,1-7.51,1.8,16.05,16.05,0,0,1-7.37-1.69,18.24,18.24,0,0,1-5.71-4.55,20.68,20.68,0,0,1-3.72-6.54A22.62,22.62,0,0,1,56,825.55a22.38,22.38,0,0,1,1.27-7.44,21.67,21.67,0,0,1,3.62-6.55,17.76,17.76,0,0,1,5.72-4.65,16.85,16.85,0,0,1,14.81-.07,18.56,18.56,0,0,1,5.71,4.52,21,21,0,0,1,3.76,6.51A22.55,22.55,0,0,1,91,833Z"/><path class="cls-4" d="M155.63,825.75a38,38,0,0,1-.72,7.37,18.55,18.55,0,0,1-2.55,6.51,13.82,13.82,0,0,1-4.89,4.62,17.55,17.55,0,0,1-15.26,0,13.65,13.65,0,0,1-4.85-4.54,19,19,0,0,1-2.59-6.48,37.15,37.15,0,0,1-.75-7.51V801.09h-4.76v24.66a39.68,39.68,0,0,0,1,9.1,22.29,22.29,0,0,0,3.44,7.85,17.78,17.78,0,0,0,6.37,5.54,20.49,20.49,0,0,0,9.75,2.11,21,21,0,0,0,9.58-2,17.51,17.51,0,0,0,6.37-5.38,22.22,22.22,0,0,0,3.54-7.81,38.76,38.76,0,0,0,1.11-9.41V801.09h-4.83Z"/><polygon class="cls-4" points="221.83 841.8 189.46 801.09 185.74 801.09 185.74 850 190.56 850 190.56 810.05 222.45 850 226.65 850 226.65 801.16 221.83 801.16 221.83 841.8"/><path class="cls-4" d="M291.23,816a21.73,21.73,0,0,0-4.41-7.75,20.74,20.74,0,0,0-7.3-5.24,25.23,25.23,0,0,0-10.23-1.93h-16.6V850h16.6a25.22,25.22,0,0,0,9.68-1.76,21,21,0,0,0,7.37-5,21.68,21.68,0,0,0,4.72-7.71,29.21,29.21,0,0,0,1.66-10.09A29.68,29.68,0,0,0,291.23,816Zm-4.54,17.49a18.61,18.61,0,0,1-3.55,6.41,16.3,16.3,0,0,1-5.82,4.27,19.63,19.63,0,0,1-8,1.55H257.51V805.36h11.78a20.06,20.06,0,0,1,7.93,1.48A16.35,16.35,0,0,1,283,811a18.29,18.29,0,0,1,3.61,6.37,25.2,25.2,0,0,1,1.24,8.1A25.74,25.74,0,0,1,286.69,833.5Z"/><polygon class="cls-4" points="329.15 801.09 308.7 850 313.86 850 318.15 839.55 321.65 830.92 331.15 806.74 348.44 850 353.54 850 333.22 801.09 329.15 801.09"/><polygon class="cls-4" points="364.56 805.36 381.99 805.36 381.99 850 386.81 850 386.81 805.36 404.24 805.36 404.24 801.09 364.56 801.09 364.56 805.36"/><rect class="cls-4" x="425.32" y="801.09" width="4.82" height="48.91"/><path class="cls-4" d="M492.52,808.6a23.36,23.36,0,0,0-7.24-5.68,20.1,20.1,0,0,0-9.33-2.17,20.66,20.66,0,0,0-9.09,2,23.49,23.49,0,0,0-7.31,5.48,25.77,25.77,0,0,0-4.85,7.92,25.44,25.44,0,0,0-1.76,9.37,26.32,26.32,0,0,0,1.65,9.16,25.47,25.47,0,0,0,4.69,7.95,23.12,23.12,0,0,0,7.27,5.58,21.48,21.48,0,0,0,18.42.07,23.28,23.28,0,0,0,7.27-5.44,25.7,25.7,0,0,0,4.82-7.89,25.39,25.39,0,0,0,1.76-9.36,25.82,25.82,0,0,0-1.65-9.06A26.61,26.61,0,0,0,492.52,808.6Zm.2,24.39a21.71,21.71,0,0,1-3.61,6.54,18.33,18.33,0,0,1-5.72,4.68,15.7,15.7,0,0,1-7.51,1.8,16,16,0,0,1-7.37-1.69,18.4,18.4,0,0,1-5.72-4.55,20.68,20.68,0,0,1-3.72-6.54,22.87,22.87,0,0,1-1.31-7.68,22.39,22.39,0,0,1,1.28-7.44,21.64,21.64,0,0,1,3.61-6.55,17.86,17.86,0,0,1,5.72-4.65,16.85,16.85,0,0,1,14.81-.07,18.48,18.48,0,0,1,5.72,4.52,20.77,20.77,0,0,1,3.75,6.51,22.1,22.1,0,0,1,1.35,7.68A22.48,22.48,0,0,1,492.72,833Z"/><polygon class="cls-4" points="557.79 801.16 557.79 841.8 525.41 801.09 521.69 801.09 521.69 850 526.51 850 526.51 810.05 558.4 850 562.61 850 562.61 801.16 557.79 801.16"/></g></svg>