<svg xmlns="http://www.w3.org/2000/svg" xmlns:xlink="http://www.w3.org/1999/xlink" viewBox="0 0 595.28 595.28"><defs><style>.cls-1{fill:url(#linear-gradient);}.cls-2{mask:url(#mask);}.cls-3{fill:#52c5d2;}</style><linearGradient id="linear-gradient" x1="295.62" y1="374.98" x2="295.62" y2="84.35" gradientUnits="userSpaceOnUse"><stop offset="0" stop-color="#fff"/><stop offset="0.12" stop-color="#e9e9e9"/><stop offset="0.36" stop-color="#afafaf"/><stop offset="0.71" stop-color="#545454"/><stop offset="1" stop-color="#010101"/></linearGradient><mask id="mask" x="-38.72" y="10.87" width="668.69" height="553.16" maskUnits="userSpaceOnUse"><rect class="cls-1" x="-38.72" y="10.87" width="668.69" height="553.16"/></mask></defs><title>lbry-square</title><g id="Layer_2" data-name="Layer 2"><g class="cls-2"><path class="cls-3" d="M585.81,364.58,294.2,518.47,13.61,366.94,0,396.31,294.3,555l301-160.45Zm-24.81-41L392.24,233.94V139.43H356.09v192.5l36.15-19.71V274.87L484,323.62,294.57,424.27,105.18,323.62l86.36-45.9v36.11l36.15,18.42V148.76H191.54v88L28.14,323.62,294.57,465.2ZM227.69,84.47H191.54v42.59h36.15Zm83.6,272.13V213.85H275.15V357l18.09,9.4Zm0-316.58H275.15V180h36.14Zm80.95,32.64H356.09v42.59h36.15Z"/></g></g></svg>